<svg width="70" height="57" viewBox="0 0 70 57" fill="none" xmlns="http://www.w3.org/2000/svg">
<g opacity="0.7">
<path d="M46.4916 0.158827C40.8874 1.62336 37.5249 8.62333 39.8884 13.8857C42.8854 20.5382 51.9009 19.6694 55.2635 12.4212C55.9701 10.8822 56.0432 10.5347 56.0432 8.25099C56.0432 6.04178 55.9701 5.6198 55.3609 4.35384C54.6056 2.81484 53.3142 1.47442 51.7304 0.655277C50.5852 0.059536 47.8805 -0.18869 46.4916 0.158827ZM50.3171 4.45313C51.5842 5.34675 52.0959 6.21554 52.2177 7.70489C52.6563 13.2403 46.0287 16.8893 43.5677 12.446C41.2285 8.25099 46.5891 1.89641 50.3171 4.45313Z" fill="#F6A6BF"/>
<path d="M18.7138 0.581415C17.2275 1.12751 15.3756 2.93956 14.5716 4.60268C13.9624 5.86863 13.8893 6.29061 13.8893 8.49982C13.8893 10.7835 13.9624 11.131 14.669 12.67C16.2528 16.0955 19.323 18.3296 22.7099 18.5033C25.0003 18.6274 26.5354 18.1062 28.1192 16.6665C31.8716 13.2409 31.701 7.01047 27.7537 2.98921C25.9262 1.12751 24.1719 0.333189 21.6865 0.25872C20.3951 0.209076 19.3961 0.333189 18.7138 0.581415ZM23.4652 4.6275C25.4389 5.67005 26.6816 7.63103 26.8765 9.98918C27.3151 15.6239 20.59 16.2941 18.1778 10.858C17.2031 8.64876 17.7148 5.89345 19.3473 4.75161C20.4438 4.00693 22.1738 3.95729 23.4652 4.6275Z" fill="#F6A6BF"/>
<path d="M60.1856 16.8895C56.9937 17.7334 54.7032 19.5703 53.3144 22.4746C52.4372 24.237 52.3884 24.51 52.3884 26.5951C52.3884 28.4568 52.4859 29.0526 52.9489 29.9958C53.6798 31.51 54.9225 32.8008 56.482 33.6447C57.6028 34.2405 58.017 34.3149 60.0882 34.3149C62.2811 34.3149 62.5004 34.2653 64.2304 33.3965C71.1261 29.9213 72.052 20.6873 65.863 17.5845C64.0599 16.6661 61.9887 16.4179 60.1856 16.8895ZM64.4254 21.2334C66.0092 22.4249 66.4721 24.1377 65.7899 26.2228C64.7665 29.4001 60.7704 31.3859 58.1145 30.0206C55.5073 28.705 55.4829 25.0065 58.0901 22.4249C59.8689 20.6625 62.9146 20.0916 64.4254 21.2334Z" fill="#F6A6BF"/>
<path d="M5.09254 17.8069C3.19198 18.4274 1.5838 19.8423 0.682254 21.7289C0.0974649 22.9452 0 23.4416 0 25.2785C0 27.2146 0.0730987 27.5373 0.925917 29.2749C4.33719 36.3245 13.572 37.2181 16.8858 30.8387C17.4706 29.7465 17.5437 29.3246 17.5437 27.2395C17.5193 25.1792 17.4462 24.7076 16.8371 23.4664C15.4482 20.5374 12.6217 18.204 9.67339 17.5835C7.89466 17.2111 6.82254 17.2608 5.09254 17.8069ZM10.2582 21.9274C13.0603 23.2927 14.5466 26.8423 13.3283 29.2253C12.7679 30.2926 11.111 31.2111 9.74649 31.2111C6.82254 31.2111 3.77677 28.0338 3.77677 25.0303C3.77677 23.665 4.84888 22.126 6.21339 21.5551C7.04184 21.1828 9.13734 21.3813 10.2582 21.9274Z" fill="#F6A6BF"/>
<path d="M31.5792 23.4177C28.3628 24.2865 25.1952 26.9922 23.7089 30.1943C22.856 31.9815 22.8073 32.0312 21.0529 32.8999C19.7615 33.5205 18.7869 34.2404 17.666 35.407C10.8435 42.4815 14.0598 54.1481 23.5139 56.6552C26.7546 57.524 30.97 56.7048 33.7234 54.719L34.9661 53.8006L36.2087 54.719C38.9134 56.7048 42.9095 57.4743 46.272 56.68C51.9493 55.3147 55.921 50.1516 55.921 44.1694C55.921 39.5276 53.0214 34.9106 48.8548 32.8751C47.0517 31.9815 47.0273 31.9567 46.1989 30.1695C44.7126 26.8929 41.3256 24.0879 37.89 23.2936C36.3306 22.9213 33.1386 22.9957 31.5792 23.4177ZM37.9875 27.5134C40.3997 28.4071 42.5683 30.8645 43.2749 33.446C43.6892 34.9354 44.079 35.3822 45.4435 35.7794C47.2954 36.3503 48.4162 37.0453 49.6589 38.3857C51.4133 40.2971 51.9006 41.5382 51.9006 44.2439C51.9006 46.1304 51.8031 46.6765 51.2671 47.868C50.3655 49.8289 49.0741 51.1694 47.1979 52.1126C45.7359 52.8573 45.3704 52.9318 43.3724 52.9318C41.4718 52.9318 41.0089 52.8325 39.8149 52.2616C39.0596 51.8644 37.8413 50.946 37.0859 50.2013C35.2585 48.3644 34.698 48.3644 32.8218 50.2013C32.0665 50.9708 30.8238 51.8892 30.0928 52.2616C28.9232 52.8325 28.4603 52.9318 26.5597 52.9318C24.7079 52.9318 24.1475 52.8325 23.0022 52.2864C21.0773 51.3679 19.7615 50.0524 18.8356 48.141C18.1046 46.6268 18.0315 46.2793 18.0315 44.2439C18.0559 41.5382 18.5432 40.2723 20.2732 38.3857C21.5159 37.0453 22.6367 36.3503 24.4886 35.7794C25.8531 35.3822 26.2429 34.9354 26.6572 33.446C27.3638 30.8893 29.5324 28.4319 31.8715 27.5134C33.6015 26.8432 36.2331 26.8184 37.9875 27.5134Z" fill="#F6A6BF"/>
</g>
</svg>
