<svg width="90" height="90" viewBox="0 0 90 90" fill="none" xmlns="http://www.w3.org/2000/svg">
<g opacity="0.7">
<path d="M32.9869 16.7351C30.0596 21.7335 32.6317 29.0609 38.024 31.1107C44.8473 33.6955 50.6079 26.7062 47.8603 19.2033C47.2717 17.6154 47.0777 17.318 45.4628 15.7032C43.9007 14.1411 43.5506 13.8944 42.2247 13.4299C40.6024 12.8758 38.7414 12.8411 37.0422 13.3818C35.8112 13.7704 33.7232 15.5073 32.9869 16.7351Z" fill="#F6A6BF"/>
<path d="M13.6438 36.6758C12.9789 38.113 12.9508 40.7037 13.5582 42.4483C14.0227 43.7742 14.2694 44.1243 15.8315 45.6864C17.4463 47.3012 17.7437 47.4953 19.3316 48.0839C22.8737 49.3861 26.6244 48.7949 29.1421 46.5229C30.8495 44.9911 31.5663 43.537 31.6682 41.3991C31.8994 36.3235 27.3732 32.0385 21.7385 31.9862C19.1299 31.962 17.3277 32.6409 15.5176 34.3456C14.5693 35.2237 13.9507 36.0179 13.6438 36.6758Z" fill="#F6A6BF"/>
<path d="M54.5003 18.8827C52.84 21.7365 52.5193 24.6549 53.5909 27.6906C54.2168 29.5571 54.3754 29.7846 55.8498 31.259C57.1662 32.5754 57.6564 32.9278 58.6507 33.2674C60.2383 33.8212 62.0297 33.8552 63.7292 33.3493C64.943 32.978 65.2886 32.7378 66.7531 31.2732C68.3037 29.7226 68.4237 29.5324 69.0327 27.6948C71.4513 20.3615 65.5766 13.1774 59.0063 15.3596C57.0819 15.9852 55.4418 17.2742 54.5003 18.8827Z" fill="#F6A6BF"/>
<path d="M16.1923 58.4877C15.2872 60.2704 15.1505 62.408 15.847 64.3795C16.2935 65.653 16.5757 66.073 17.8745 67.3719C19.2436 68.7409 19.5235 68.9174 21.3552 69.543C28.7521 72.1157 35.914 66.2176 33.7463 59.3635C33.3875 58.1777 33.1408 57.8276 31.6664 56.3532C30.1924 54.9136 29.8072 54.6318 28.4988 54.185C25.4456 53.0959 21.797 53.4446 19.2735 55.0906C17.7524 56.085 17.0294 56.8782 16.1923 58.4877Z" fill="#F6A6BF"/>
<path d="M38.1153 54.0836C36.902 50.7684 37.2287 46.6154 38.8887 43.7267C39.693 42.3257 41.8974 40.0159 43.2633 39.1765C46.2544 37.3088 50.6327 36.8973 54.0006 38.1632C55.8501 38.8412 55.8849 38.8415 57.7918 38.1984C62.1773 36.6914 67.4923 37.9058 70.7746 41.1881C75.0047 45.4182 75.8471 51.8775 72.798 56.8573C70.982 59.7966 67.6123 62.0782 64.2956 62.5865L62.7675 62.8157L62.5382 64.3439C61.9954 67.695 59.594 71.2549 56.6881 72.9321C48.2303 77.8444 37.7064 71.8692 37.5283 62.0425C37.4959 60.425 37.6761 59.2268 38.1504 57.8748C38.7766 56.02 38.776 55.9504 38.1153 54.0836Z" fill="#F6A6BF"/>
</g>
</svg>
